<svg width="432" height="12" viewBox="0 0 432 12" fill="none" xmlns="http://www.w3.org/2000/svg">
<path d="M9.69044 5.83831C13.0649 5.83831 16.6001 5.77873 19.9746 5.71916C21.4208 5.71916 22.7063 5.65958 24.1525 5.65958C30.2587 5.54043 36.3649 5.42128 42.4711 5.30214C49.8628 5.18299 57.0938 5.00426 64.4855 4.88512C74.9303 4.64682 85.3751 4.46809 95.8199 4.22979C98.2303 4.17022 100.641 4.17022 103.051 4.11064C109.157 3.9915 115.263 3.87235 121.37 3.81277C127.476 3.69362 133.582 3.57447 139.688 3.5149C142.098 3.45532 144.509 3.39575 146.919 3.39575C156.561 3.2766 166.363 3.15745 176.004 3.0383C181.949 2.97873 187.895 2.91916 194.001 2.80001C196.411 2.80001 198.661 2.74043 201.071 2.74043C210.391 2.68085 219.872 2.62128 229.192 2.56171C238.512 2.50213 247.671 2.44256 256.991 2.38298C259.402 2.38298 261.812 2.38298 264.383 2.38298C270.489 2.38298 276.435 2.38298 282.541 2.38298C292.022 2.38298 301.342 2.38298 310.822 2.32341C313.875 2.32341 316.928 2.32341 319.982 2.32341C326.409 2.32341 332.837 2.32341 339.264 2.32341C339.746 2.32341 340.389 2.32341 340.871 2.32341C326.409 2.38298 311.786 2.44256 297.324 2.56171C291.218 2.62128 285.273 2.62128 279.166 2.68085C276.595 2.68085 273.864 2.68085 271.293 2.74043C262.455 2.8 253.778 2.91915 244.94 2.97873C234.816 3.09788 224.693 3.15745 214.569 3.2766C212.802 3.2766 211.195 3.33617 209.427 3.33617C203.964 3.45532 198.661 3.5149 193.198 3.63405C182.271 3.81277 171.344 3.99149 160.417 4.17022C158.81 4.17022 157.203 4.2298 155.596 4.28937C150.294 4.40852 144.83 4.58724 139.527 4.70639C129.886 4.94469 120.405 5.18298 110.764 5.42128C108.193 5.48086 105.461 5.60001 102.89 5.65958C96.7841 5.83831 90.6779 6.01703 84.5717 6.25533C76.8586 6.49363 68.9848 6.73193 61.2717 6.97022C50.5055 7.32767 39.5787 7.68512 28.8125 8.04256C26.2414 8.10214 23.6704 8.22129 20.9387 8.28086C16.2787 8.45959 11.6187 8.63831 6.95872 8.81703C6.47665 8.81703 5.99458 8.93618 5.99458 9.17448C5.99458 9.3532 6.47665 9.53193 6.95872 9.53193C8.7263 9.53193 10.3332 9.5915 12.1008 9.5915C11.9401 9.77022 11.7794 9.94895 11.7794 10.1277C11.7794 10.783 13.2256 11.3787 15.1539 11.3787C28.4911 11.0809 41.6676 10.7234 55.0048 10.4851C66.5745 10.3064 78.1441 10.0681 89.7137 9.88937C102.408 9.65108 115.263 9.41278 127.958 9.23406C131.975 9.17448 135.992 9.1149 140.01 8.99576C141.134 8.99576 142.259 8.93618 143.545 8.93618C164.113 8.75746 184.681 8.51916 205.249 8.34044C216.176 8.22129 227.264 8.10214 238.191 8.04256C242.208 7.98299 246.064 7.98299 250.082 7.92342C271.132 7.80427 292.182 7.68512 313.233 7.56597C322.231 7.5064 331.23 7.44682 340.228 7.38724C347.942 7.32767 355.655 7.32767 363.368 7.20852C369.795 7.14894 376.062 7.0298 382.49 6.97022C385.704 6.91065 388.917 6.91065 391.97 6.85107C399.201 6.67235 406.432 6.49362 413.663 6.3149C413.181 6.5532 413.181 6.91065 413.342 7.14895C413.503 7.44682 413.985 7.68512 414.788 7.80426C415.431 7.92341 416.395 8.04257 417.038 7.92342C418.645 7.68512 420.252 7.44682 421.698 7.20852C421.698 7.20852 421.698 7.20852 421.537 7.20852C421.698 7.20852 421.698 7.14895 421.859 7.14895C422.019 7.14895 422.18 7.08937 422.18 7.08937H422.019C422.823 6.97022 423.626 6.85108 424.59 6.67235C425.394 6.5532 426.358 6.37448 427.161 6.25533C428.126 6.0766 428.929 5.89788 429.893 5.71916C430.857 5.54043 431.5 5.06384 431.5 4.64682C431.5 4.40852 431.339 4.2298 431.018 3.9915C430.697 3.7532 429.893 3.45533 429.09 3.39575C428.286 3.33618 427.483 3.2766 426.679 3.2766C426.519 3.2766 426.358 3.2766 426.197 3.2766C425.715 3.2766 425.072 3.2766 424.59 3.33617C423.305 3.39575 422.18 3.45533 420.895 3.45533C419.93 3.45533 418.966 3.5149 417.841 3.5149C415.11 3.57447 412.539 3.63405 409.807 3.7532C409.164 3.7532 408.361 3.81277 407.718 3.81277C408.039 3.69362 408.2 3.57447 408.2 3.45533C408.361 3.33618 408.361 3.21703 408.361 3.09788C408.361 3.0383 408.361 2.91915 408.521 2.85958C408.521 2.74043 408.521 2.62128 408.361 2.56171C408.361 2.56171 408.521 2.56171 408.521 2.50213C409.003 2.38298 409.486 2.26383 409.807 2.02554C410.128 1.84681 410.289 1.60851 410.289 1.37022C410.289 1.13192 410.128 0.953195 409.807 0.714897C409.646 0.655323 409.486 0.536173 409.325 0.476598C408.843 0.297875 408.361 0.2383 407.879 0.178725C406.914 0.0595764 405.79 0 404.665 0C403.701 0 402.897 0 401.933 0C400.648 0 399.362 0 398.077 0C396.309 0 394.381 0 392.613 0C387.792 0 382.972 0 378.151 0C373.652 0 368.992 0 364.493 0C360.315 0 356.297 0 352.119 0C335.568 0 319.178 0.0595773 302.627 0.119152C290.254 0.178726 277.881 0.238299 265.508 0.238299C260.044 0.238299 254.42 0.297872 248.957 0.357446C236.584 0.476595 224.211 0.53617 211.838 0.655319C208.302 0.655319 204.767 0.714897 201.232 0.714897C199.143 0.714897 197.215 0.774471 195.126 0.774471C182.914 0.953195 170.701 1.13192 158.489 1.31064C154.793 1.37022 151.097 1.42979 147.241 1.48936C145.152 1.48936 143.063 1.54894 140.974 1.60852C128.761 1.84681 116.71 2.08511 104.497 2.32341C98.2303 2.44256 91.9634 2.5617 85.6965 2.74043C74.9303 2.97873 64.1641 3.21703 53.5586 3.5149C44.2386 3.7532 34.9187 3.93192 25.5987 4.11064C24.1525 4.17022 22.7063 4.17022 21.0994 4.22979C18.689 4.28937 16.2787 4.28937 13.8684 4.34894C11.7794 4.40852 9.69044 4.40852 7.44079 4.40852C7.2801 4.22979 6.63734 4.05107 6.15527 4.05107C4.70907 4.11065 3.42355 4.17022 1.97735 4.22979C1.33459 4.22979 0.691833 4.34894 0.531144 4.64682C0.370455 4.94469 0.852522 5.24256 1.49528 5.30214C2.13804 5.36171 2.62011 5.42129 3.26286 5.48086C3.90562 5.54044 4.38769 5.54043 5.03045 5.54043C6.63734 5.77873 8.08354 5.77873 9.69044 5.83831ZM385.704 3.87235C387.632 3.87235 389.721 3.87235 391.649 3.87235C391.81 4.05107 392.131 4.17022 392.452 4.28937C391.649 4.28937 390.846 4.34894 390.203 4.34894C388.757 4.34894 387.31 4.40852 385.864 4.40852C379.437 4.46809 373.17 4.58724 366.742 4.64682C363.85 4.70639 360.957 4.76596 358.065 4.76596C353.566 4.76596 348.906 4.82554 344.406 4.82554C333.962 4.88511 323.677 4.94469 313.233 5.00426C292.986 5.12341 272.9 5.24256 252.653 5.36171C238.191 5.42128 223.729 5.60001 209.267 5.77873C187.574 6.01703 165.72 6.19575 144.027 6.43405C139.688 6.49363 135.35 6.5532 131.011 6.67235C118.638 6.91065 106.265 7.08937 93.8917 7.32767C81.84 7.56597 69.6276 7.74469 57.5759 7.98299C56.451 7.98299 55.3262 8.04256 54.2014 8.04256C57.4152 7.92341 60.7896 7.86384 64.0034 7.74469C75.4124 7.44682 86.8213 7.08937 98.2303 6.7915C102.247 6.67235 106.265 6.5532 110.121 6.43405C112.21 6.37448 114.299 6.3149 116.227 6.3149C128.118 6.0766 140.01 5.77873 151.901 5.54043C154.15 5.48086 156.561 5.42128 158.81 5.36171C162.185 5.30213 165.559 5.24256 168.773 5.24256C180.985 5.06384 193.198 4.88511 205.41 4.70639C208.142 4.64682 210.874 4.64682 213.445 4.58724C214.087 4.58724 214.891 4.58724 215.533 4.58724C217.462 4.58724 219.39 4.58724 221.158 4.52766C233.37 4.40852 245.743 4.34894 257.955 4.22979C263.58 4.17022 269.204 4.11064 274.828 4.11064C292.986 4.05107 311.304 3.99149 329.462 3.93192C348.584 3.93192 367.224 3.93192 385.704 3.87235Z" fill="#26A4FF"/>
</svg>
